<?xml version="1.0" encoding="utf-8"?>
<!-- Generator: Adobe Illustrator 26.3.1, SVG Export Plug-In . SVG Version: 6.00 Build 0)  -->
<svg version="1.1" id="Layer_1" xmlns="http://www.w3.org/2000/svg" xmlns:xlink="http://www.w3.org/1999/xlink" x="0px" y="0px"
	 viewBox="0 0 284 123" style="enable-background:new 0 0 284 123;" xml:space="preserve">
<style type="text/css">
	.st0{fill-rule:evenodd;clip-rule:evenodd;fill:#FFFFFF;}
	.st1{fill-rule:evenodd;clip-rule:evenodd;fill:#FEFEFE;}
	.st2{fill-rule:evenodd;clip-rule:evenodd;fill:#14387F;}
	.st3{fill-rule:evenodd;clip-rule:evenodd;fill:#1D3E88;}
	.st4{filter:url(#Adobe_OpacityMaskFilter);}
	
		.st5{mask:url(#mask-4_00000096752800502421773590000004336982513645228222_);fill-rule:evenodd;clip-rule:evenodd;fill:url(#Fill-32_00000149377207119603724890000016223324225630571687_);}
	.st6{fill:#14387F;}
	.st7{fill:none;}
</style>
<path id="Combined-Shape-Copy-24" class="st0" d="M284,0l-32.8,83.3l-0.3,0.2c-8.8,23.1-31.2,39.5-57.5,39.5c-0.2,0-0.3,0-0.5,0l0,0
	H0V0H284z"/>
<g>
	<g id="Group-54-Copy" transform="translate(29.000000, 28.000000)">
		<g id="Group-31" transform="translate(59.136207, 16.728944)">
			<path id="Fill-7" class="st1" d="M-27.1-8.7H-29v23c0,6.4,5.2,11.6,11.6,11.6h139v-23c0-6.4-5.2-11.6-11.6-11.6L-27.1-8.7"/>
			<path id="Fill-9" class="st2" d="M119.5,23.9H-17.6c-5.3,0-9.7-4.3-9.7-9.7v-21h137.1c5.3,0,9.7,4.3,9.7,9.7V23.9"/>
			<path id="Fill-11" class="st1" d="M26.4,14.3c1.1,0.5,2.2,1,3.3,1c0.8,0,1.8-0.4,1.8-1.1c0-1.9-4.7-3.4-4.7-6.7
				c0-0.9,0.4-3.2,4.3-3.2c1.1,0,2.3,0.1,3.4,0.4l0.3,2.7C34,7,32.6,6.8,31.9,6.8c-0.5,0-1.5,0.1-1.5,1c0,1.7,4.7,3.3,4.7,6.7
				c0,2.4-2.5,3.3-4.4,3.3c-1.3,0-2.5-0.3-3.7-0.5L26.4,14.3"/>
			<path id="Fill-13" class="st1" d="M83,6.7c1-1.1,2.5-1.8,4.2-1.8c2.4,0,4.4,1.5,4.4,4.7v8h-3.3v-7.5c0-1.8-1-2.9-2.5-2.9
				C84.7,7.2,83,8,83,10.3v7.4h-3.3V5.1H83V6.7"/>
			<polygon id="Fill-15" class="st1" points="95.4,-1 98.7,-1 98.7,9.8 99,9.8 103.3,4.6 106.4,4.6 101.7,10.3 107.4,17.3 
				103.6,17.3 98.9,10.9 98.7,10.9 98.7,17.3 95.4,17.3 			"/>
			<path id="Fill-17" class="st1" d="M55.4,6.5c1.8,0,3.1,1.5,3.1,4.7c0,3.1-1.3,4.7-3.1,4.7s-3.1-1.5-3.1-4.7S53.6,6.5,55.4,6.5
				 M56.3,4.6c-1.5,0-2.9,0.8-3.9,2l0,0V-1H49v18.3h3.3v-1.5c1,1.1,2.4,1.9,3.9,1.9c3.1,0,5.6-2.9,5.6-6.5
				C61.9,7.5,59.3,4.6,56.3,4.6"/>
			<path id="Fill-19" class="st1" d="M70.4,11c-1.7,0.5-2.4,1.4-2.4,2.8c0,1.1,0.6,1.8,1.4,1.8c1.4,0,2.9-1.4,2.8-5.3L70.4,11
				 M68.7,17.8c-2.7,0-4.1-1.7-4.1-3.4c0-2.8,1.7-4.1,4.6-4.8l2.9-0.9C72,7.5,71,6.8,70,6.8c-1.4,0-2.4,0.5-3.3,1.3l-1-1.5
				c1.5-1.3,3.1-1.7,4.8-1.7c2.3,0,5.1,0.8,5.1,4.6v5.1c0,1.3,0.1,2.2,0.5,3.1h-3.6c-0.1-0.5-0.3-1.1-0.3-1.8
				C72.2,15.8,70.8,17.8,68.7,17.8"/>
			<path id="Fill-21" class="st1" d="M17.8,6.5c1.8,0,3.1,1.5,3.1,4.7c0,3.1-1.3,4.7-3.1,4.7s-3.1-1.5-3.1-4.7S16,6.5,17.8,6.5
				 M17.8,17.7c3.6,0,6.5-2.9,6.5-6.5s-2.9-6.5-6.5-6.5s-6.5,2.9-6.5,6.5C11.1,14.8,14.1,17.7,17.8,17.7"/>
			<path id="Fill-23" class="st3" d="M39.5,13.8V6.9h-1.7V4.6h1.7V2.7l3.3-1.5v3.4h1.9V7h-1.9v7c0,0.3,0,0.6,0.4,0.8
				c0.4,0.1,1.3,0.1,1.7,0.1v2.5l-1.4,0.1C40.5,17.3,39.6,16.8,39.5,13.8"/>
			<path id="Fill-25" class="st1" d="M39.5,13.8V6.9h-1.7V4.6h1.7V2.7l3.3-1.5v3.4h1.9V7h-1.9v7c0,0.3,0,0.6,0.4,0.8
				c0.4,0.1,1.3,0.1,1.7,0.1v2.5l-1.4,0.1C40.5,17.3,39.6,16.8,39.5,13.8"/>
			<path id="Fill-27" class="st1" d="M0.6,1.3v6.2h2.9c0,0,1.9,0,2.7-1.5c0,0,0.9-1.7,0-3.4c0,0-0.5-1.3-2.7-1.3H0.6L0.6,1.3z
				 M4.1-1C7.8-1.1,9,0.8,9,0.8C11.1,4.1,9.2,7,9.2,7c-1.7,3.1-5.1,3-5.1,3H0.6v7.2h-3.4V-1H4.1z"/>
			<path id="Fill-29" class="st1" d="M-30.9,13.9c11.4,0,20.6-9.3,20.6-20.6c0-11.4-9.3-20.6-20.6-20.6c-11.4,0-20.6,9.3-20.6,20.6
				S-42.4,13.9-30.9,13.9"/>
		</g>
		<g id="Group-34" transform="translate(60.284483, 17.877220)">
			<g id="Clip-33">
			</g>
			<defs>
				<filter id="Adobe_OpacityMaskFilter" filterUnits="userSpaceOnUse" x="-51.1" y="-27.1" width="38" height="37.8">
					<feColorMatrix  type="matrix" values="1 0 0 0 0  0 1 0 0 0  0 0 1 0 0  0 0 0 1 0"/>
				</filter>
			</defs>
			
				<mask maskUnits="userSpaceOnUse" x="-51.1" y="-27.1" width="38" height="37.8" id="mask-4_00000096752800502421773590000004336982513645228222_">
				<g class="st4">
					<path id="path-3_00000152978805727054036010000003791767636290781834_" class="st0" d="M-51.1-8.2c0,10.4,8.5,18.9,18.9,18.9
						l0,0c10.6,0,19.1-8.5,19.1-18.9l0,0c0-10.6-8.5-18.9-19.1-18.9l0,0C-42.6-27.1-51.1-18.7-51.1-8.2"/>
				</g>
			</mask>
			
				<radialGradient id="Fill-32_00000044892897775164594550000005734640473656049597_" cx="-1003.2527" cy="139.0465" r="0.5002" gradientTransform="matrix(31.1146 -21.7866 -21.7866 -31.1146 34204.625 -17551.2852)" gradientUnits="userSpaceOnUse">
				<stop  offset="0" style="stop-color:#FEFEFE"/>
				<stop  offset="1" style="stop-color:#D24D44"/>
			</radialGradient>
			
				<path id="Fill-32" style="mask:url(#mask-4_00000096752800502421773590000004336982513645228222_);fill-rule:evenodd;clip-rule:evenodd;fill:url(#Fill-32_00000044892897775164594550000005734640473656049597_);" d="
				M-51.1-8.2c0,10.4,8.5,18.9,18.9,18.9l0,0c10.6,0,19.1-8.5,19.1-18.9l0,0c0-10.6-8.5-18.9-19.1-18.9l0,0
				C-42.6-27.1-51.1-18.7-51.1-8.2"/>
		</g>
		<g id="Group-53" transform="translate(67.748276, 17.877220)">
			<path id="Fill-35" class="st2" d="M-32-8c2-1,3.9-2.7,3.9-6.4c0,0,0.3-6.1-7.2-6.7h-13.9V3.4l1.8,1.9h10c2.9,0,10.4,0.6,10.7-6.4
				C-26.4-6-30.6-7.8-32-8"/>
			<path id="Fill-37" class="st1" d="M-37-20.9h-11.8v24h6.2l2.9-12.5h2.5c0,0,6.5,0.5,6.7-5.6C-30.4-14.9-29.9-21.1-37-20.9"/>
			<path id="Fill-39" class="st1" d="M-29.2-1.7c0.9-6.7-7.4-6-8-6l-2.5,10.9h4.1C-35.7,3.2-29.9,3.7-29.2-1.7"/>
		</g>
	</g>
	<g>
		<g>
			<path class="st6" d="M88.8,81.2c-1.8,0-3.2,1.3-3.6,3.3v0.1l0,0c0,0-0.6,2.7,1.7,3.1c1,0.3,2.5-0.1,3.7-2H90
				c-0.8,0.9-1.7,1.3-2.4,1.3c-1.1-0.3-1-1.4-1-1.9V85h4.3c0-0.1,0.1-0.3,0.1-0.5C91.4,82.4,90.6,81.2,88.8,81.2 M89.7,83.9h-2.9
				c0.3-1,0.9-1.5,1.8-1.5S90,82.9,89.7,83.9"/>
			<path class="st6" d="M157,81.2c-1.8,0-3.2,1.3-3.6,3.3v0.1l0,0c0,0-0.6,2.7,1.7,3.1c1,0.3,2.5-0.1,3.7-2h-0.6
				c-0.8,0.9-1.7,1.3-2.4,1.3c-1.1-0.1-1.1-1.4-1.1-1.9V85h4.3c0-0.1,0.1-0.3,0.1-0.5C159.5,82.4,158.6,81.2,157,81.2 M157.8,83.9
				h-2.9c0.3-1,0.9-1.5,1.8-1.5S158,82.9,157.8,83.9"/>
			<path class="st6" d="M205.1,81.2c-1.8,0-3.2,1.3-3.6,3.3v0.1l0,0c0,0-0.6,2.7,1.7,3.1c1,0.3,2.5-0.1,3.7-2h-0.6
				c-0.8,0.9-1.7,1.3-2.4,1.3c-1.1-0.1-1.1-1.4-1.1-1.9V85h4.3c0-0.1,0.1-0.3,0.1-0.5C207.7,82.4,206.8,81.2,205.1,81.2 M205.9,83.9
				H203c0.3-1,0.9-1.5,1.8-1.5C205.8,82.4,206.2,82.9,205.9,83.9"/>
			<path class="st6" d="M116.4,87.7c-2.4-0.1-1.9-2.3-1.9-2.3h1.1c0,0-0.3,1.1,1.1,1.1c0.6,0,1.3-0.3,1.4-0.9
				c0.3-0.8-0.6-0.8-0.9-0.8h-1.1l0.3-1h0.6c0.9,0,1.4-0.3,1.5-0.8s-0.3-0.9-0.9-0.9c-1.4,0-1.7,1-1.7,1h-1.1c0,0,0.3-2.2,2.9-2
				c0.8,0,1.4,0.3,1.7,0.6c0.3,0.4,0.4,0.8,0.3,1.1c-0.1,0.6-0.5,1-1,1.3c0.5,0.3,0.6,0.9,0.5,1.5C119.4,86.3,118.8,87.8,116.4,87.7
				"/>
			<path class="st6" d="M175,82.1c-0.4-0.5-1-0.8-1.9-0.8c-2,0-3.3,1.7-3.7,3.2c-0.3,1,0,1.9,0.4,2.5c0.4,0.5,1,0.8,1.9,0.8
				c2,0,3.3-1.7,3.7-3.2C175.6,83.5,175.5,82.6,175,82.1 M174.1,84.4c-0.1,0.4-0.6,2.3-2.2,2.3c-0.4,0-0.8-0.1-1-0.4
				c-0.4-0.5-0.3-1.5-0.3-1.8s0.5-2.2,2.2-2.2c0.4,0,0.8,0.1,1,0.4C174.4,83.3,174.2,84.2,174.1,84.4"/>
			<path class="st6" d="M187.1,82.2c0.5-0.6,1.3-0.9,2-0.9c0.8,0,1.3,0.3,1.5,0.9c0.6-0.6,1.3-0.9,2-0.9c1.4,0,1.9,0.8,1.5,2.3
				l-0.9,3.9H192l0.8-3.8c0.1-0.9,0-1.3-0.8-1.3c-0.9,0-1.5,0.5-1.7,1.5l-0.8,3.7h-1.3l0.9-4.1c0.1-0.6-0.1-1-0.8-1
				c-0.8,0-1.4,0.5-1.7,1.5l-0.8,3.7h-1.3l1.3-6.1h1.3L187.1,82.2z"/>
			<path class="st6" d="M195.2,90h-1.3l1.8-8.6h1.3l-0.1,0.9c0.6-0.8,1.3-1,2.2-1c1.5,0,2.4,1.3,1.9,3.2c-0.4,2-1.8,3.3-3.3,3.3
				c-0.9,0-1.4-0.4-1.7-1L195.2,90z M197.5,86.6c1,0,1.8-0.8,2-2.2c0.3-1.3-0.1-2-1.1-2s-1.8,0.8-2,2.2
				C196.1,85.9,196.5,86.6,197.5,86.6"/>
			<path class="st6" d="M184.8,81.5h-1.3l-0.8,3.4c-0.3,1.1-0.9,1.8-1.9,1.8c-0.9,0-1-0.5-0.8-1.4l0.8-3.8h-1.3l-0.9,3.9
				c-0.1,0.6-0.3,1.1,0,1.7c0.3,0.5,0.8,0.8,1.7,0.8c0.8,0,1.5-0.4,2.2-1l0,0c-0.1,0.4-0.1,0.6-0.3,1l0,0c0,0-0.4,1.9-1.9,2
				c-0.8,0.1-1.7-0.3-2-1.3h-0.5c0.3,1.7,1.8,2.3,2.8,2c2.4-0.5,2.8-2.7,3.1-3.8l0,0l0,0L184.8,81.5z"/>
			<polygon class="st6" points="96.6,87.6 95.3,87.6 95.9,84.9 93.3,84.9 92.6,87.6 91.4,87.6 92.6,81.5 94,81.5 93.4,83.9 
				96.1,83.9 96.6,81.5 98,81.5 			"/>
			<path class="st6" d="M72.5,81.2c-1.8,0-3.2,1.3-3.6,3.3v0.1l0,0c0,0-0.6,2.7,1.7,3.1c1,0.3,2.5-0.1,3.7-2h-0.6
				C72.9,86.6,72,87,71.3,87c-1.1-0.1-1.1-1.4-1.1-1.9V85h4.3c0-0.1,0.1-0.3,0.1-0.5C75.1,82.4,74.3,81.2,72.5,81.2 M73.4,83.9h-2.9
				c0.3-1,0.9-1.5,1.8-1.5C73.2,82.4,73.7,82.9,73.4,83.9"/>
			<path class="st6" d="M82.6,86.8c-0.5,0.6-1.3,0.9-2,0.9s-1.3-0.3-1.5-0.9c-0.6,0.6-1.3,0.9-2,0.9c-1.4,0-1.9-0.8-1.5-2.3l0.9-3.9
				h1.3L77,85.3c-0.1,0.9,0,1.3,0.8,1.3c0.9,0,1.5-0.5,1.7-1.5l0.8-3.7h1.3l-0.9,4.2c-0.1,0.6,0.1,1,0.8,1c0.8,0,1.4-0.5,1.7-1.5
				l0.8-3.7h1.3L84,87.5h-1.3L82.6,86.8z"/>
			<path class="st6" d="M101.9,86.8c-0.5,0.6-1.3,0.9-2,0.9c-0.4,0-0.8-0.1-1-0.3c-0.3-0.1-0.3-0.3-0.4-0.6c0-0.1-0.1-0.5,0-0.8
				c0-0.3,0.1-0.5,0.1-0.9l0.8-3.7h1.3l-0.9,4.1c-0.1,0.6,0.1,1,0.8,1c0.8,0,1.4-0.5,1.7-1.5l0.8-3.7h1.3l-1.3,6.1h-1.3L101.9,86.8z
				"/>
			<path class="st6" d="M161.8,82.2c0.5-0.6,1.3-0.9,2-0.9c0.8,0,1.3,0.3,1.5,0.9c0.6-0.6,1.3-0.9,2-0.9c1.4,0,1.9,0.8,1.5,2.3
				l-0.9,3.9h-1.3l0.8-3.8c0.1-0.9,0-1.3-0.8-1.3c-0.9,0-1.5,0.5-1.7,1.5l-0.8,3.7h-1.3l0.9-4.1c0.1-0.6-0.1-1-0.8-1
				c-0.8,0-1.4,0.5-1.7,1.5l-0.8,3.7h-1.3l1.3-6.1h1.3L161.8,82.2z"/>
			<path class="st6" d="M132.3,82.2c0.5-0.6,1.3-0.9,2-0.9c0.8,0,1.3,0.3,1.5,0.9c0.6-0.6,1.3-0.9,2-0.9c1.4,0,1.9,0.8,1.5,2.3
				l-0.9,3.9h-1.3l0.8-3.8c0.1-0.9,0-1.3-0.8-1.3c-0.9,0-1.5,0.5-1.7,1.5l-0.8,3.7h-1.3l0.9-4.1c0.1-0.6-0.1-1-0.8-1
				c-0.8,0-1.4,0.5-1.7,1.5l-0.8,3.7H130l1.3-6.1h1.3L132.3,82.2z"/>
			<path class="st6" d="M126.1,83c0.1-0.5,0-0.9-0.3-1.1c-0.5-0.6-1.5-0.6-1.8-0.6c-1.7,0-2.8,0.6-3.1,2v0.1h1.3
				c0-0.1,0.4-1,1.5-1.1c0.5,0,0.9,0.1,1,0.4s0.3,0.9-0.6,1c-1,0.3-3.6,0.3-3.8,2.2c-0.1,0.8,0.5,1.7,1.7,1.8c1.3,0.1,2-0.4,2.4-0.8
				c0.4,0.6,1.1,0.8,1.1,0.8l0.3-0.6c0,0-0.3-0.1-0.4-0.5c-0.1-0.3,0-0.8,0-0.8L126.1,83z M122.5,86.6c-0.6,0-0.9-0.3-1-0.6
				c0-0.4,0.3-0.8,0.8-0.9c0.6-0.3,1.8-0.4,2.3-0.4C124.3,86.2,123.1,86.6,122.5,86.6"/>
			<path class="st6" d="M152.2,82.1c-0.4-0.5-1-0.8-1.9-0.8c-2,0-3.3,1.7-3.7,3.2c-0.3,1,0,1.9,0.4,2.5c0.4,0.5,1,0.8,1.9,0.8
				c2,0,3.3-1.7,3.7-3.2C152.9,83.5,152.8,82.6,152.2,82.1 M151.4,84.4c-0.1,0.4-0.5,2.2-2.2,2.2c-0.4,0-0.8-0.1-0.9-0.4
				c-0.4-0.5-0.3-1.4-0.3-1.8c0-0.3,0.5-2.2,2.2-2.2c0.4,0,0.8,0.1,0.9,0.4C151.6,83.3,151.5,84.2,151.4,84.4"/>
			<path class="st6" d="M68.5,80.2c-0.3-0.4-0.9-0.9-1.8-0.9h-4.1l-1.8,8.4h1.5l1.5-7.2l0,0l0,0h2.3h0.1c0.4,0,0.9,0.5,0.9,1.1
				c0,0.5-0.1,0.9-0.5,1.4c-0.8,0.9-1.9,1.3-2.9,1.1l-0.1,0.5c1.1,0.3,2.9,0.1,3.8-0.6c0.9-0.6,1.1-1.5,1.3-2.2
				C68.8,81.2,68.7,80.6,68.5,80.2"/>
			<line class="st7" x1="95.3" y1="87.6" x2="96.6" y2="87.6"/>
			<path class="st6" d="M146,81.2c0.1-0.9-0.4-2.2-1.9-2.2c-1.4,0-2.8,1-3.3,2.8l-0.6,3.2c-0.3,0.9-0.1,2.7,2.2,2.8
				c1.7,0.1,2.9-0.8,3.3-2.4c0.3-1.4-0.9-2.2-1.1-2.3C145,82.8,145.9,82.2,146,81.2 M144.4,82c-0.6,0.5-1.4,0.6-2.2,0.6l-0.1,0.6
				c0.1,0,0.4,0,0.6,0.1c1,0.3,1.7,0.9,1.5,1.8c-0.1,0.8-0.8,1.4-1.7,1.4c-1.7,0-1.4-1.4-1.4-1.4s0.6-2.9,0.6-3.1l0,0l0,0
				c0.1-0.4,0.1-0.8,0.4-1c0.3-0.5,1.1-1.3,2-0.9C145.3,80.6,144.9,81.5,144.4,82"/>
			<path class="st6" d="M108.4,81.2c-1,0-2,0.4-2.5,1.1c-0.6,1-0.4,1.9,0.1,2.4c-1.7,1.1-1.9,2.8-1.9,2.8h1.3c0,0,0.3-1,0.9-1.7
				c0.6-0.5,1.4-0.6,1.9-0.6c0.4,0,0.6,0,0.6,0l-0.5,2.3h1.3l0.9-4.2C110.5,82.8,110.8,81.2,108.4,81.2 M109.3,83.1l-0.3,1.3h-1.3
				c0,0-0.8,0-1-0.5c-0.1-0.4-0.1-0.8,0.3-1.1c0.3-0.4,1-0.6,1.8-0.5C109.4,82.5,109.3,83.1,109.3,83.1"/>
		</g>
	</g>
</g>
</svg>
